# xmcd
#
# Track frame offsets: 
#        150
#        14841
#        33200
#        56147
#        73254
#        109714
#
# Disc length: 2385 seconds
#
# Revision: 0
# Processed by: cddbd v1.5.2PL0 Copyright (c) Steve Scherf et al.
# Submitted via: ExactAudioCopy v0.99pb3
#
DISCID=53094f06
DTITLE=Dandelion Wine - Cat
DYEAR=2000
DGENRE=Crustacean Creations
TTITLE0=Cat
TTITLE1=Julie (acoustic)
TTITLE2=Les Parapluies Qui Ont Mange Le Paris
TTITLE3=Empty Head
TTITLE4=Arc (Percussive Repercussions mix)
TTITLE5=Video
EXTD=
EXTT0=
EXTT1=
EXTT2=
EXTT3=
EXTT4=
EXTT5=
PLAYORDER=
